<svg xmlns="http://www.w3.org/2000/svg" viewBox="0 0 628 97" role="img" aria-labelledby="title desc">
<title id="title">másfertil fertilizantes</title>
<desc id="desc">Logo de másfertil fertilizantes</desc>
<defs>
<style>
.brown{fill:#8b5a16}.green{fill:#008447}.dark{fill:#513313}
.icon-green{stroke:#008447;stroke-width:4;fill:none;stroke-linecap:round;stroke-linejoin:round}
</style>
</defs>
<g transform="translate(7 5)">
  <circle cx="43.5" cy="43.5" r="38.5" fill="none" stroke="#008447" stroke-width="4"/>
  <path d="M43.5 69.5V36.5" class="icon-green"/>
  <path d="M43.5 51.5C37 44 29.5 41.5 22.5 44" class="icon-green"/>
  <path d="M43.5 46.5C49 38.5 56.5 35.5 64.5 37" class="icon-green"/>
  <path d="M43.5 37.5C39.5 32 39 27 41.5 22.5" class="icon-green"/>
  <path d="M43.5 32C48 25 53.5 22 59.5 22.5" class="icon-green"/>
  <ellipse cx="41.5" cy="19" rx="4.5" ry="5.5" fill="#f2a900" transform="rotate(-12 41.5 19)"/>
  <path d="M25 67C31 62 37.5 61 43.5 63C49 61 55 62 61.5 67" fill="none" stroke="#8b5a16" stroke-width="4" stroke-linecap="round"/>
  <path d="M43.5 63V69" class="icon-green"/>
</g>
<text x="105" y="57" font-family="Arial Rounded MT Bold,Arial,sans-serif" font-size="52" font-weight="500" letter-spacing="-2"><tspan class="brown">más</tspan><tspan class="green">fertil</tspan></text>
<text x="294" y="80" font-family="Arial,Helvetica,sans-serif" font-size="17" font-weight="700" letter-spacing="3.8" class="dark">FERTILIZANTES</text>
</svg>